<svg width="1921" height="1080" viewBox="0 0 1921 1080" fill="none" xmlns="http://www.w3.org/2000/svg">
<g clip-path="url(#clip0_2021_50)">
<path d="M-255.773 540L48.2412 299.495L-102.106 238.422L-255.773 540Z" fill="#1D4DFF"/>
<path d="M48.2412 540L352.256 299.495L201.909 238.422L48.2412 540Z" fill="#1D4DFF"/>
<path d="M352.256 540L656.27 299.495L505.924 238.422L352.256 540Z" fill="#1D4DFF"/>
<path d="M48.2412 1109L352.256 868.495L201.909 807.422L48.2412 1109Z" fill="#1D4DFF"/>
<path d="M-255.773 1109L48.2412 868.495L-102.106 807.422L-255.773 1109Z" fill="#1D4DFF"/>
<path d="M49.3441 238.422L351.153 17.3937L141.486 -29L49.3441 238.422Z" fill="#1D4DFF"/>
<path d="M352.256 1109L656.27 868.495L505.924 807.422L352.256 1109Z" fill="#1D4DFF"/>
<path d="M49.3441 807.423L351.153 586.394L141.486 540L49.3441 807.423Z" fill="#1D4DFF"/>
<path d="M-254.669 238.422L47.1394 17.3937L-162.528 -29L-254.669 238.422Z" fill="#1D4DFF"/>
<path d="M353.359 238.422L655.168 17.3937L445.501 -29L353.359 238.422Z" fill="#1D4DFF"/>
<path d="M-254.669 807.423L47.1394 586.394L-162.528 540L-254.669 807.423Z" fill="#1D4DFF"/>
<path d="M353.359 807.423L655.168 586.394L445.501 540L353.359 807.423Z" fill="#1D4DFF"/>
<path d="M658.474 540L962.489 299.495L812.142 238.422L658.474 540Z" fill="#1D4DFF"/>
<path d="M1569.42 540L1873.43 299.495L1723.08 238.422L1569.42 540Z" fill="#1D4DFF"/>
<path d="M962.489 540L1266.5 299.495L1116.16 238.422L962.489 540Z" fill="#1D4DFF"/>
<path d="M1873.43 540L2177.45 299.495L2027.1 238.422L1873.43 540Z" fill="#1D4DFF"/>
<path d="M1266.51 540L1570.52 299.495L1420.17 238.422L1266.51 540Z" fill="#1D4DFF"/>
<path d="M962.489 1109L1266.5 868.495L1116.16 807.422L962.489 1109Z" fill="#1D4DFF"/>
<path d="M1873.43 1109L2177.45 868.495L2027.1 807.422L1873.43 1109Z" fill="#1D4DFF"/>
<path d="M658.474 1109L962.489 868.495L812.142 807.422L658.474 1109Z" fill="#1D4DFF"/>
<path d="M1569.42 1109L1873.43 868.495L1723.08 807.422L1569.42 1109Z" fill="#1D4DFF"/>
<path d="M963.593 238.422L1265.4 17.3937L1055.73 -29L963.593 238.422Z" fill="#1D4DFF"/>
<path d="M1874.53 238.422L2176.34 17.3937L1966.68 -29L1874.53 238.422Z" fill="#1D4DFF"/>
<path d="M1266.51 1109L1570.52 868.495L1420.17 807.422L1266.51 1109Z" fill="#1D4DFF"/>
<path d="M963.593 807.423L1265.4 586.394L1055.73 540L963.593 807.423Z" fill="#1D4DFF"/>
<path d="M1874.53 807.423L2176.34 586.394L1966.68 540L1874.53 807.423Z" fill="#1D4DFF"/>
<path d="M659.578 238.422L961.387 17.3937L751.72 -29L659.578 238.422Z" fill="#1D4DFF"/>
<path d="M1570.52 238.422L1872.33 17.3937L1662.66 -29L1570.52 238.422Z" fill="#1D4DFF"/>
<path d="M1267.61 238.422L1569.42 17.3937L1359.75 -29L1267.61 238.422Z" fill="#1D4DFF"/>
<path d="M659.578 807.423L961.387 586.394L751.72 540L659.578 807.423Z" fill="#1D4DFF"/>
<path d="M1570.52 807.423L1872.33 586.394L1662.66 540L1570.52 807.423Z" fill="#1D4DFF"/>
<path d="M1267.61 807.423L1569.42 586.394L1359.75 540L1267.61 807.423Z" fill="#1D4DFF"/>
</g>
<defs>
<clipPath id="clip0_2021_50">
<rect width="1920" height="1080" fill="white" transform="translate(0.836914)"/>
</clipPath>
</defs>
</svg>
