<svg width="1921" height="1080" viewBox="0 0 1921 1080" fill="none" xmlns="http://www.w3.org/2000/svg">
<g clip-path="url(#clip0_2021_55)">
<path d="M-186.314 1055.41L-193.375 1080H-255.48V1028.56L-186.314 1055.41Z" fill="#1D4DFF"/>
<path d="M182.101 1080H-107.171L-125.948 1017.38H200.163L182.101 1080Z" fill="#1D4DFF"/>
<path d="M389.564 1080H233.5L247.44 1031.45L389.564 1080Z" fill="#1D4DFF"/>
<path d="M676.965 967.104H498.736L659.205 1029.4L644.675 1080H568.55L420.427 1029.4L402.65 967.104L376.25 879.072H702.361L676.965 967.104Z" fill="#1D4DFF"/>
<path d="M1020.29 1079.41H842.054L843.573 1080H746.136L745.968 1079.41L719.57 991.376H1045.68L1020.29 1079.41Z" fill="#1D4DFF"/>
<path d="M1310.41 1073.45L1312.28 1080H1088.5L1071.63 1073.45L1092.96 999.173L1310.41 1073.45Z" fill="#1D4DFF"/>
<path d="M1865.8 1047.13H1687.57L1772.24 1080H1600.87L1591.48 1047.13L1565.09 959.096H1891.2L1865.8 1047.13Z" fill="#1D4DFF"/>
<path d="M2155.92 1047.44L2165.21 1080H2001.01L1917.15 1047.44L1938.47 973.162L2155.92 1047.44Z" fill="#1D4DFF"/>
<path d="M1522.48 934.824H1344.25L1504.72 997.121L1483.39 1071.4L1265.94 997.121L1248.17 934.824L1221.77 846.792H1547.88L1522.48 934.824Z" fill="#1D4DFF"/>
<path d="M2177.16 993.551L2111.46 971.112L2093.68 908.816L2067.29 820.783H2177.16V993.551Z" fill="#1D4DFF"/>
<path d="M-168.551 993.113H-255.48V905.08H-143.156L-168.551 993.113Z" fill="#1D4DFF"/>
<path d="M288.8 810.764L306.577 873.063L332.977 961.097H6.86597L32.2615 873.063H210.493L50.0242 810.764L71.3501 736.486L288.8 810.764Z" fill="#1D4DFF"/>
<path d="M1134.32 782.756L1152.1 845.053L1178.49 933.088H852.384L877.78 845.053H1056.01L895.543 782.756L916.869 708.477L1134.32 782.756Z" fill="#1D4DFF"/>
<path d="M1979.83 756.748L1997.61 819.045L2024.01 907.079H1697.9L1723.3 819.045H1901.53L1741.06 756.748L1762.39 682.468L1979.83 756.748Z" fill="#1D4DFF"/>
<path d="M-54.5183 698.459L-36.7412 760.756L-10.3411 848.789H-255.48V760.756H-132.827L-255.48 713.139V629.809L-54.5183 698.459Z" fill="#1D4DFF"/>
<path d="M790.998 670.452L808.777 732.749L835.175 820.783H509.064L534.46 732.749H712.692L552.225 670.452L573.551 596.172L790.998 670.452Z" fill="#1D4DFF"/>
<path d="M500.878 672.137H322.648L483.115 734.434L461.789 808.716L244.34 734.434L226.563 672.137L200.163 584.105H526.273L500.878 672.137Z" fill="#1D4DFF"/>
<path d="M1636.52 644.444L1654.29 706.74L1680.69 794.773H1354.58L1379.98 706.74H1558.21L1397.74 644.444L1419.07 570.162L1636.52 644.444Z" fill="#1D4DFF"/>
<path d="M1346.39 644.13H1168.16L1328.63 706.426L1307.31 780.708L1089.86 706.426L1072.08 644.13L1045.68 556.097H1371.79L1346.39 644.13Z" fill="#1D4DFF"/>
<path d="M2177.16 618.121H2013.68L2174.15 680.418L2152.82 754.698L1935.37 680.418L1917.6 618.121L1891.2 530.087H2177.16V618.121Z" fill="#1D4DFF"/>
<path d="M157.56 559.833H-20.672L139.795 622.129L118.471 696.409L-98.9804 622.129L-116.757 559.833L-143.156 471.8H182.955L157.56 559.833Z" fill="#1D4DFF"/>
<path d="M1003.08 531.823H824.847L985.314 594.122L963.988 668.402L746.538 594.122L728.761 531.823L702.361 443.791H1028.47L1003.08 531.823Z" fill="#1D4DFF"/>
<path d="M1848.59 505.815H1670.36L1830.83 568.114L1809.5 642.391L1592.05 568.114L1574.28 505.815L1547.88 417.782H1873.99L1848.59 505.815Z" fill="#1D4DFF"/>
<path d="M-230.606 403.491L-212.829 465.789L-186.429 553.822H-255.48V394.993L-230.606 403.491Z" fill="#1D4DFF"/>
<path d="M614.913 375.485L632.688 437.782L659.088 525.814H332.977L358.372 437.782H536.602L376.135 375.485L397.463 301.205L614.913 375.485Z" fill="#1D4DFF"/>
<path d="M1460.43 349.475L1478.2 411.771L1504.61 499.806H1178.49L1203.89 411.771H1382.12L1221.65 349.475L1242.98 275.195L1460.43 349.475Z" fill="#1D4DFF"/>
<path d="M2177.16 471.8H2024.01L2049.41 383.766H2177.16V471.8Z" fill="#1D4DFF"/>
<path d="M271.593 263.179L289.37 325.477L315.77 413.51H-10.3411L15.0544 325.477H193.284L32.815 263.179L54.143 188.899L271.593 263.179Z" fill="#1D4DFF"/>
<path d="M-18.5275 264.866H-196.759L-36.2902 327.163L-57.6161 401.443L-255.48 333.852V176.832H6.86802L-18.5275 264.866Z" fill="#1D4DFF"/>
<path d="M1117.11 237.17L1134.89 299.467L1161.29 387.501H835.175L860.571 299.467H1038.8L878.334 237.17L899.661 162.89L1117.11 237.17Z" fill="#1D4DFF"/>
<path d="M826.989 236.859H648.757L809.226 299.155L787.9 373.435L570.451 299.155L552.674 236.859L526.273 148.824H852.384L826.989 236.859Z" fill="#1D4DFF"/>
<path d="M2177.16 277.475V364.164L2067.17 321.467L2088.5 247.189L2177.16 277.475Z" fill="#1D4DFF"/>
<path d="M1962.63 209.163L1980.4 271.459L2006.8 359.494H1680.69L1706.09 271.459H1884.32L1723.85 209.163L1745.18 134.883L1962.63 209.163Z" fill="#1D4DFF"/>
<path d="M1672.51 210.85H1494.28L1654.74 273.147L1633.42 347.425L1415.97 273.147L1398.19 210.85L1371.79 122.816H1697.9L1672.51 210.85Z" fill="#1D4DFF"/>
<path d="M483.669 124.552H305.439L465.906 186.849L444.58 261.129L227.131 186.849L209.353 124.552L182.955 36.5198H509.064L483.669 124.552Z" fill="#1D4DFF"/>
<path d="M1329.19 98.5437H1150.96L1311.42 160.84L1290.1 235.12L1072.65 160.84L1054.87 98.5437L1028.47 10.5092H1354.58L1329.19 98.5437Z" fill="#1D4DFF"/>
<path d="M2177.16 62.0403L2174.71 70.5342H1996.47L2156.94 132.831L2135.62 207.113L1918.17 132.831L1900.39 70.5342L1879.24 0H2177.16V62.0403Z" fill="#1D4DFF"/>
<path d="M126.313 46.8506L152.713 134.883H-173.398L-148.002 46.8506H30.2277L-90.4496 0H112.944L126.313 46.8506Z" fill="#1D4DFF"/>
<path d="M971.83 20.84L998.23 108.874H672.119L697.514 20.84H875.744L822.064 0H965.882L971.83 20.84Z" fill="#1D4DFF"/>
<path d="M1830.72 64.5272H1504.61L1523.22 0H1811.37L1830.72 64.5272Z" fill="#1D4DFF"/>
<path d="M-190.605 64.6594H-255.48V0H-197.376L-190.605 64.6594Z" fill="#1D4DFF"/>
</g>
<defs>
<clipPath id="clip0_2021_55">
<rect width="1920" height="1080" fill="white" transform="translate(0.836914)"/>
</clipPath>
</defs>
</svg>
