<svg width="1921" height="1080" viewBox="0 0 1921 1080" fill="none" xmlns="http://www.w3.org/2000/svg">
<path d="M322.125 716.365H320.889L319.951 713.173L320.563 711.05L322.125 716.365Z" fill="#1D4DFF"/>
<path d="M331.115 716.365H329.88L324.405 697.734L325.017 695.612L331.115 716.365Z" fill="#1D4DFF"/>
<path d="M340.106 716.365H338.87L328.858 682.296L329.471 680.173L340.106 716.365Z" fill="#1D4DFF"/>
<path d="M349.096 716.365H347.861L333.312 666.856L333.924 664.735L349.096 716.365Z" fill="#1D4DFF"/>
<path d="M358.087 716.365H356.851L337.765 651.418L338.378 649.296L358.087 716.365Z" fill="#1D4DFF"/>
<path d="M367.077 716.365H365.842L342.219 635.979L342.831 633.858L367.077 716.365Z" fill="#1D4DFF"/>
<path d="M376.068 716.365H374.832L346.674 620.541L347.285 618.419L376.068 716.365Z" fill="#1D4DFF"/>
<path d="M385.058 716.365H383.822L351.127 605.102L351.739 602.979L385.058 716.365Z" fill="#1D4DFF"/>
<path d="M394.048 716.365H392.813L355.581 589.663L356.193 587.541L394.048 716.365Z" fill="#1D4DFF"/>
<path d="M403.039 716.365H401.803L360.034 574.225L360.647 572.102L403.039 716.365Z" fill="#1D4DFF"/>
<path d="M412.029 716.365H410.794L364.488 558.785L365.1 556.664L412.029 716.365Z" fill="#1D4DFF"/>
<path d="M421.02 716.365H419.784L368.953 543.383H370.189L421.02 716.365Z" fill="#1D4DFF"/>
<path d="M430.01 716.365H428.775L377.943 543.383H379.179L430.01 716.365Z" fill="#1D4DFF"/>
<path d="M439.001 716.365H437.765L386.934 543.383H388.169L439.001 716.365Z" fill="#1D4DFF"/>
<path d="M447.991 716.365H446.756L395.924 543.383H397.16L447.991 716.365Z" fill="#1D4DFF"/>
<path d="M456.982 716.365H455.746L404.915 543.383H406.15L456.982 716.365Z" fill="#1D4DFF"/>
<path d="M465.972 716.365H464.737L413.905 543.383H415.141L465.972 716.365Z" fill="#1D4DFF"/>
<path d="M474.963 716.365H473.727L422.896 543.383H424.131L474.963 716.365Z" fill="#1D4DFF"/>
<path d="M483.953 716.365H482.718L431.886 543.383H433.122L483.953 716.365Z" fill="#1D4DFF"/>
<path d="M492.944 716.365H491.708L440.877 543.383H442.112L492.944 716.365Z" fill="#1D4DFF"/>
<path d="M501.934 716.365H500.699L449.867 543.383H451.103L501.934 716.365Z" fill="#1D4DFF"/>
<path d="M510.925 716.365H509.689L458.858 543.383H460.093L510.925 716.365Z" fill="#1D4DFF"/>
<path d="M519.915 716.365H518.68L467.848 543.383H469.084L519.915 716.365Z" fill="#1D4DFF"/>
<path d="M528.906 716.365H527.67L476.839 543.383H478.074L528.906 716.365Z" fill="#1D4DFF"/>
<path d="M537.896 716.365H536.661L485.829 543.383H487.065L537.896 716.365Z" fill="#1D4DFF"/>
<path d="M546.887 716.365H545.651L494.82 543.383H496.055L546.887 716.365Z" fill="#1D4DFF"/>
<path d="M555.877 716.365H554.642L503.81 543.383H505.046L555.877 716.365Z" fill="#1D4DFF"/>
<path d="M564.868 716.365H563.632L512.801 543.383H514.036L564.868 716.365Z" fill="#1D4DFF"/>
<path d="M573.858 716.365H572.622L521.791 543.383H523.027L573.858 716.365Z" fill="#1D4DFF"/>
<path d="M582.849 716.365H581.613L530.782 543.383H532.017L582.849 716.365Z" fill="#1D4DFF"/>
<path d="M591.839 716.365H590.603L539.772 543.383H541.008L591.839 716.365Z" fill="#1D4DFF"/>
<path d="M600.829 716.365H599.594L548.763 543.383H549.998L600.829 716.365Z" fill="#1D4DFF"/>
<path d="M609.82 716.365H608.584L557.753 543.383H558.989L609.82 716.365Z" fill="#1D4DFF"/>
<path d="M618.81 716.365H617.575L566.743 543.383H567.979L618.81 716.365Z" fill="#1D4DFF"/>
<path d="M627.801 716.365H626.565L575.734 543.383H576.97L627.801 716.365Z" fill="#1D4DFF"/>
<path d="M636.791 716.365H635.556L584.724 543.383H585.96L636.791 716.365Z" fill="#1D4DFF"/>
<path d="M645.782 716.365H644.546L593.715 543.383H594.95L645.782 716.365Z" fill="#1D4DFF"/>
<path d="M654.772 716.365H653.537L602.705 543.383H603.941L654.772 716.365Z" fill="#1D4DFF"/>
<path d="M663.763 716.365H662.527L611.696 543.383H612.931L663.763 716.365Z" fill="#1D4DFF"/>
<path d="M672.753 716.365H671.518L620.686 543.383H621.922L672.753 716.365Z" fill="#1D4DFF"/>
<path d="M681.744 716.365H680.508L629.677 543.383H630.912L681.744 716.365Z" fill="#1D4DFF"/>
<path d="M690.734 716.365H689.499L638.667 543.383H639.903L690.734 716.365Z" fill="#1D4DFF"/>
<path d="M699.725 716.365H698.489L647.658 543.383H648.893L699.725 716.365Z" fill="#1D4DFF"/>
<path d="M708.715 716.365H707.48L656.648 543.383H657.884L708.715 716.365Z" fill="#1D4DFF"/>
<path d="M717.706 716.365H716.47L665.639 543.383H666.874L717.706 716.365Z" fill="#1D4DFF"/>
<path d="M726.696 716.365H725.461L674.629 543.383H675.865L726.696 716.365Z" fill="#1D4DFF"/>
<path d="M735.687 716.365H734.451L683.62 543.383H684.855L735.687 716.365Z" fill="#1D4DFF"/>
<path d="M744.677 716.365H743.442L692.61 543.383H693.846L744.677 716.365Z" fill="#1D4DFF"/>
<path d="M753.668 716.365H752.432L701.601 543.383H702.836L753.668 716.365Z" fill="#1D4DFF"/>
<path d="M762.658 716.365H761.422L710.591 543.383H711.827L762.658 716.365Z" fill="#1D4DFF"/>
<path d="M663.848 349.518L771.649 716.365H770.413L662.475 349.048L663.848 349.518Z" fill="#1D4DFF"/>
<path d="M673.842 352.932L780.639 716.365H779.403L672.468 352.463L673.842 352.932Z" fill="#1D4DFF"/>
<path d="M683.835 356.346L789.629 716.365H788.394L682.462 355.877L683.835 356.346Z" fill="#1D4DFF"/>
<path d="M693.83 359.759L798.62 716.365H797.384L692.456 359.29L693.83 359.759Z" fill="#1D4DFF"/>
<path d="M703.823 363.173L807.61 716.365H806.375L702.449 362.704L703.823 363.173Z" fill="#1D4DFF"/>
<path d="M713.816 366.587L816.601 716.365H815.365L712.443 366.118L713.816 366.587Z" fill="#1D4DFF"/>
<path d="M723.81 370L825.591 716.365H824.356L722.437 369.531L723.81 370Z" fill="#1D4DFF"/>
<path d="M733.804 373.414L834.582 716.365H833.346L732.43 372.945L733.804 373.414Z" fill="#1D4DFF"/>
<path d="M743.797 376.828L843.572 716.365H842.337L742.424 376.359L743.797 376.828Z" fill="#1D4DFF"/>
<path d="M753.79 380.242L852.563 716.365H851.327L752.417 379.773L753.79 380.242Z" fill="#1D4DFF"/>
<path d="M763.785 383.655L861.553 716.365H860.318L762.411 383.186L763.785 383.655Z" fill="#1D4DFF"/>
<path d="M773.778 387.069L870.544 716.365H869.308L772.405 386.6L773.778 387.069Z" fill="#1D4DFF"/>
<path d="M783.771 390.484L879.534 716.365H878.299L782.398 390.014L783.771 390.484Z" fill="#1D4DFF"/>
<path d="M793.766 393.897L888.525 716.365H887.289L792.392 393.428L793.766 393.897Z" fill="#1D4DFF"/>
<path d="M803.759 397.311L897.515 716.365H896.28L802.386 396.842L803.759 397.311Z" fill="#1D4DFF"/>
<path d="M813.752 400.725L906.506 716.365H905.27L812.379 400.256L813.752 400.725Z" fill="#1D4DFF"/>
<path d="M823.747 404.139L915.496 716.365H914.261L822.373 403.67L823.747 404.139Z" fill="#1D4DFF"/>
<path d="M833.74 407.552L924.487 716.365H923.251L832.367 407.083L833.74 407.552Z" fill="#1D4DFF"/>
<path d="M843.733 410.966L933.477 716.365H932.242L842.36 410.497L843.733 410.966Z" fill="#1D4DFF"/>
<path d="M853.728 414.38L942.468 716.365H941.232L852.354 413.911L853.728 414.38Z" fill="#1D4DFF"/>
<path d="M863.721 417.793L951.458 716.365H950.223L862.348 417.324L863.721 417.793Z" fill="#1D4DFF"/>
<path d="M653.854 346.103L710.883 540.173L709.489 539.633L652.481 345.634L653.854 346.103Z" fill="#1D4DFF"/>
<path d="M643.861 342.69L700.734 536.234L699.34 535.692L642.487 342.221L643.861 342.69Z" fill="#1D4DFF"/>
<path d="M633.868 339.276L690.587 532.294L689.192 531.753L632.494 338.807L633.868 339.276Z" fill="#1D4DFF"/>
<path d="M623.873 335.862L680.439 528.355L679.043 527.813L622.5 335.393L623.873 335.862Z" fill="#1D4DFF"/>
<path d="M613.88 332.449L670.29 524.415L668.896 523.874L612.506 331.98L613.88 332.449Z" fill="#1D4DFF"/>
<path d="M603.887 329.035L660.142 520.475L658.748 519.933L602.513 328.566L603.887 329.035Z" fill="#1D4DFF"/>
<path d="M593.892 325.621L649.995 516.536L648.599 515.994L592.519 325.152L593.892 325.621Z" fill="#1D4DFF"/>
<path d="M583.899 322.208L639.846 512.596L638.451 512.054L582.525 321.739L583.899 322.208Z" fill="#1D4DFF"/>
<path d="M573.906 318.794L629.698 508.656L628.303 508.115L572.532 318.325L573.906 318.794Z" fill="#1D4DFF"/>
<path d="M563.912 315.38L619.549 504.716L618.155 504.176L562.539 314.911L563.912 315.38Z" fill="#1D4DFF"/>
<path d="M553.918 311.966L609.401 500.777L608.007 500.235L552.544 311.497L553.918 311.966Z" fill="#1D4DFF"/>
<path d="M543.925 308.553L599.253 496.837L597.858 496.296L542.551 308.083L543.925 308.553Z" fill="#1D4DFF"/>
<path d="M533.931 305.138L589.105 492.897L587.71 492.356L532.558 304.669L533.931 305.138Z" fill="#1D4DFF"/>
<path d="M523.937 301.724L578.957 488.957L577.562 488.417L522.563 301.255L523.937 301.724Z" fill="#1D4DFF"/>
<path d="M513.944 298.311L568.808 485.018L567.414 484.476L512.57 297.842L513.944 298.311Z" fill="#1D4DFF"/>
<path d="M503.95 294.897L558.661 481.079L557.265 480.537L502.577 294.428L503.95 294.897Z" fill="#1D4DFF"/>
<path d="M493.956 291.483L548.512 477.138L547.117 476.597L492.582 291.014L493.956 291.483Z" fill="#1D4DFF"/>
<path d="M483.963 288.069L538.364 473.199L536.97 472.658L482.589 287.6L483.963 288.069Z" fill="#1D4DFF"/>
<path d="M473.969 284.656L528.215 469.259L526.821 468.717L472.596 284.187L473.969 284.656Z" fill="#1D4DFF"/>
<path d="M463.975 281.242L518.068 465.32L516.673 464.778L462.601 280.773L463.975 281.242Z" fill="#1D4DFF"/>
<path d="M453.982 277.828L507.92 461.379L506.524 460.839L452.608 277.359L453.982 277.828Z" fill="#1D4DFF"/>
<path d="M497.771 457.44L496.377 456.899L444.352 279.858L444.963 277.732L497.771 457.44Z" fill="#1D4DFF"/>
<path d="M487.623 453.5L486.229 452.959L439.909 295.333L440.52 293.206L487.623 453.5Z" fill="#1D4DFF"/>
<path d="M477.474 449.561L476.08 449.019L435.466 310.807L436.077 308.681L477.474 449.561Z" fill="#1D4DFF"/>
<path d="M467.327 445.62L465.932 445.08L431.022 326.282L431.634 324.155L467.327 445.62Z" fill="#1D4DFF"/>
<path d="M457.179 441.681L455.783 441.14L426.579 341.758L427.191 339.63L457.179 441.681Z" fill="#1D4DFF"/>
<path d="M447.03 437.742L445.636 437.2L422.136 357.231L422.748 355.105L447.03 437.742Z" fill="#1D4DFF"/>
<path d="M436.882 433.802L435.488 433.26L417.693 372.707L418.304 370.579L436.882 433.802Z" fill="#1D4DFF"/>
<path d="M426.735 429.863L425.339 429.321L413.25 388.182L413.861 386.055L426.735 429.863Z" fill="#1D4DFF"/>
<path d="M416.586 425.922L415.191 425.381L408.807 403.656L409.418 401.53L416.586 425.922Z" fill="#1D4DFF"/>
<path d="M406.438 421.983L405.043 421.441L404.364 419.131L404.975 417.004L406.438 421.983Z" fill="#1D4DFF"/>
<path d="M1191.23 425.339H891.634L1161.37 530.055L1125.52 654.914L760.007 530.055L730.121 425.339L685.748 277.359H1233.92L1191.23 425.339Z" fill="#1D4DFF"/>
<path d="M1010.37 751.562L733.033 669.074L564.426 622.854L610.335 784.124L974.203 876.994L1010.37 751.562Z" fill="#1D4DFF"/>
<path d="M475.029 787.421L395.95 509.089L344.559 341.985L233.047 467.208L349.757 824.145L475.029 787.421Z" fill="#1D4DFF"/>
<path d="M1233.92 696.563L1503.65 801.279L1667.95 861.025L1635.28 696.563L1269.76 571.704L1233.92 696.563Z" fill="#1D4DFF"/>
<path d="M1733.83 716.365H1735.06L1736 713.173L1735.39 711.05L1733.83 716.365Z" fill="#1D4DFF"/>
<path d="M1724.84 716.365H1726.07L1731.55 697.734L1730.93 695.612L1724.84 716.365Z" fill="#1D4DFF"/>
<path d="M1715.85 716.365H1717.08L1727.09 682.296L1726.48 680.173L1715.85 716.365Z" fill="#1D4DFF"/>
<path d="M1706.86 716.365H1708.09L1722.64 666.856L1722.03 664.735L1706.86 716.365Z" fill="#1D4DFF"/>
<path d="M1697.86 716.365H1699.1L1718.19 651.418L1717.57 649.296L1697.86 716.365Z" fill="#1D4DFF"/>
<path d="M1688.87 716.365H1690.11L1713.73 635.979L1713.12 633.858L1688.87 716.365Z" fill="#1D4DFF"/>
<path d="M1679.88 716.365H1681.12L1709.28 620.541L1708.67 618.419L1679.88 716.365Z" fill="#1D4DFF"/>
<path d="M1670.89 716.365H1672.13L1704.82 605.102L1704.21 602.979L1670.89 716.365Z" fill="#1D4DFF"/>
<path d="M1661.9 716.365H1663.14L1700.37 589.663L1699.76 587.541L1661.9 716.365Z" fill="#1D4DFF"/>
<path d="M1652.91 716.365H1654.15L1695.92 574.225L1695.3 572.102L1652.91 716.365Z" fill="#1D4DFF"/>
<path d="M1643.92 716.365H1645.16L1691.46 558.785L1690.85 556.664L1643.92 716.365Z" fill="#1D4DFF"/>
<path d="M1634.93 716.365H1636.17L1687 543.383H1685.76L1634.93 716.365Z" fill="#1D4DFF"/>
<path d="M1625.94 716.365H1627.18L1678.01 543.383H1676.77L1625.94 716.365Z" fill="#1D4DFF"/>
<path d="M1616.95 716.365H1618.19L1669.02 543.383H1667.78L1616.95 716.365Z" fill="#1D4DFF"/>
<path d="M1607.96 716.365H1609.2L1660.03 543.383H1658.79L1607.96 716.365Z" fill="#1D4DFF"/>
<path d="M1598.97 716.365H1600.2L1651.04 543.383H1649.8L1598.97 716.365Z" fill="#1D4DFF"/>
<path d="M1589.98 716.365H1591.21L1642.05 543.383H1640.81L1589.98 716.365Z" fill="#1D4DFF"/>
<path d="M1580.99 716.365H1582.22L1633.06 543.383H1631.82L1580.99 716.365Z" fill="#1D4DFF"/>
<path d="M1572 716.365H1573.23L1624.06 543.383H1622.83L1572 716.365Z" fill="#1D4DFF"/>
<path d="M1563.01 716.365H1564.24L1615.07 543.383H1613.84L1563.01 716.365Z" fill="#1D4DFF"/>
<path d="M1554.02 716.365H1555.25L1606.08 543.383H1604.85L1554.02 716.365Z" fill="#1D4DFF"/>
<path d="M1545.03 716.365H1546.26L1597.09 543.383H1595.86L1545.03 716.365Z" fill="#1D4DFF"/>
<path d="M1536.04 716.365H1537.27L1588.1 543.383H1586.87L1536.04 716.365Z" fill="#1D4DFF"/>
<path d="M1527.05 716.365H1528.28L1579.11 543.383H1577.88L1527.05 716.365Z" fill="#1D4DFF"/>
<path d="M1518.06 716.365H1519.29L1570.12 543.383H1568.89L1518.06 716.365Z" fill="#1D4DFF"/>
<path d="M1509.06 716.365H1510.3L1561.13 543.383H1559.9L1509.06 716.365Z" fill="#1D4DFF"/>
<path d="M1500.07 716.365H1501.31L1552.14 543.383H1550.91L1500.07 716.365Z" fill="#1D4DFF"/>
<path d="M1491.08 716.365H1492.32L1543.15 543.383H1541.92L1491.08 716.365Z" fill="#1D4DFF"/>
<path d="M1482.09 716.365H1483.33L1534.16 543.383H1532.92L1482.09 716.365Z" fill="#1D4DFF"/>
<path d="M1473.1 716.365H1474.34L1525.17 543.383H1523.93L1473.1 716.365Z" fill="#1D4DFF"/>
<path d="M1464.11 716.365H1465.35L1516.18 543.383H1514.94L1464.11 716.365Z" fill="#1D4DFF"/>
<path d="M1455.12 716.365H1456.36L1507.19 543.383H1505.95L1455.12 716.365Z" fill="#1D4DFF"/>
<path d="M1446.13 716.365H1447.37L1498.2 543.383H1496.96L1446.13 716.365Z" fill="#1D4DFF"/>
<path d="M1437.14 716.365H1438.38L1489.21 543.383H1487.97L1437.14 716.365Z" fill="#1D4DFF"/>
<path d="M1428.15 716.365H1429.39L1480.22 543.383H1478.98L1428.15 716.365Z" fill="#1D4DFF"/>
<path d="M1419.16 716.365H1420.4L1471.23 543.383H1469.99L1419.16 716.365Z" fill="#1D4DFF"/>
<path d="M1410.17 716.365H1411.4L1462.24 543.383H1461L1410.17 716.365Z" fill="#1D4DFF"/>
<path d="M1401.18 716.365H1402.41L1453.25 543.383H1452.01L1401.18 716.365Z" fill="#1D4DFF"/>
<path d="M1392.19 716.365H1393.42L1444.26 543.383H1443.02L1392.19 716.365Z" fill="#1D4DFF"/>
<path d="M1383.2 716.365H1384.43L1435.26 543.383H1434.03L1383.2 716.365Z" fill="#1D4DFF"/>
<path d="M1374.21 716.365H1375.44L1426.27 543.383H1425.04L1374.21 716.365Z" fill="#1D4DFF"/>
<path d="M1365.22 716.365H1366.45L1417.28 543.383H1416.05L1365.22 716.365Z" fill="#1D4DFF"/>
<path d="M1356.23 716.365H1357.46L1408.29 543.383H1407.06L1356.23 716.365Z" fill="#1D4DFF"/>
<path d="M1347.24 716.365H1348.47L1399.3 543.383H1398.07L1347.24 716.365Z" fill="#1D4DFF"/>
<path d="M1338.25 716.365H1339.48L1390.31 543.383H1389.08L1338.25 716.365Z" fill="#1D4DFF"/>
<path d="M1329.26 716.365H1330.49L1381.32 543.383H1380.09L1329.26 716.365Z" fill="#1D4DFF"/>
<path d="M1320.26 716.365H1321.5L1372.33 543.383H1371.1L1320.26 716.365Z" fill="#1D4DFF"/>
<path d="M1311.27 716.365H1312.51L1363.34 543.383H1362.11L1311.27 716.365Z" fill="#1D4DFF"/>
<path d="M1302.28 716.365H1303.52L1354.35 543.383H1353.11L1302.28 716.365Z" fill="#1D4DFF"/>
<path d="M1293.29 716.365H1294.53L1345.36 543.383H1344.12L1293.29 716.365Z" fill="#1D4DFF"/>
<path d="M1392.1 349.518L1284.3 716.365H1285.54L1393.48 349.048L1392.1 349.518Z" fill="#1D4DFF"/>
<path d="M1382.11 352.932L1275.31 716.365H1276.55L1383.48 352.463L1382.11 352.932Z" fill="#1D4DFF"/>
<path d="M1372.12 356.346L1266.32 716.365H1267.56L1373.49 355.877L1372.12 356.346Z" fill="#1D4DFF"/>
<path d="M1362.12 359.759L1257.33 716.365H1258.57L1363.5 359.29L1362.12 359.759Z" fill="#1D4DFF"/>
<path d="M1352.13 363.173L1248.34 716.365H1249.58L1353.5 362.704L1352.13 363.173Z" fill="#1D4DFF"/>
<path d="M1342.14 366.587L1239.35 716.365H1240.59L1343.51 366.118L1342.14 366.587Z" fill="#1D4DFF"/>
<path d="M1332.14 370L1230.36 716.365H1231.6L1333.51 369.531L1332.14 370Z" fill="#1D4DFF"/>
<path d="M1322.15 373.414L1221.37 716.365H1222.6L1323.52 372.945L1322.15 373.414Z" fill="#1D4DFF"/>
<path d="M1312.15 376.828L1212.38 716.365H1213.61L1313.53 376.359L1312.15 376.828Z" fill="#1D4DFF"/>
<path d="M1302.16 380.242L1203.39 716.365H1204.62L1303.53 379.773L1302.16 380.242Z" fill="#1D4DFF"/>
<path d="M1292.17 383.655L1194.4 716.365H1195.63L1293.54 383.186L1292.17 383.655Z" fill="#1D4DFF"/>
<path d="M1282.17 387.069L1185.41 716.365H1186.64L1283.55 386.6L1282.17 387.069Z" fill="#1D4DFF"/>
<path d="M1272.18 390.484L1176.42 716.365H1177.65L1273.55 390.014L1272.18 390.484Z" fill="#1D4DFF"/>
<path d="M1262.19 393.897L1167.43 716.365H1168.66L1263.56 393.428L1262.19 393.897Z" fill="#1D4DFF"/>
<path d="M1252.19 397.311L1158.44 716.365H1159.67L1253.57 396.842L1252.19 397.311Z" fill="#1D4DFF"/>
<path d="M1242.2 400.725L1149.45 716.365H1150.68L1243.57 400.256L1242.2 400.725Z" fill="#1D4DFF"/>
<path d="M1232.2 404.139L1140.46 716.365H1141.69L1233.58 403.67L1232.2 404.139Z" fill="#1D4DFF"/>
<path d="M1222.21 407.552L1131.46 716.365H1132.7L1223.58 407.083L1222.21 407.552Z" fill="#1D4DFF"/>
<path d="M1212.22 410.966L1122.47 716.365H1123.71L1213.59 410.497L1212.22 410.966Z" fill="#1D4DFF"/>
<path d="M1202.22 414.38L1113.48 716.365H1114.72L1203.6 413.911L1202.22 414.38Z" fill="#1D4DFF"/>
<path d="M1192.23 417.793L1104.49 716.365H1105.73L1193.6 417.324L1192.23 417.793Z" fill="#1D4DFF"/>
<path d="M1402.1 346.103L1345.07 540.173L1346.46 539.633L1403.47 345.634L1402.1 346.103Z" fill="#1D4DFF"/>
<path d="M1412.09 342.69L1355.22 536.234L1356.61 535.692L1413.46 342.221L1412.09 342.69Z" fill="#1D4DFF"/>
<path d="M1422.08 339.276L1365.36 532.294L1366.76 531.753L1423.46 338.807L1422.08 339.276Z" fill="#1D4DFF"/>
<path d="M1432.08 335.862L1375.51 528.355L1376.91 527.813L1433.45 335.393L1432.08 335.862Z" fill="#1D4DFF"/>
<path d="M1442.07 332.449L1385.66 524.415L1387.06 523.874L1443.44 331.98L1442.07 332.449Z" fill="#1D4DFF"/>
<path d="M1452.06 329.035L1395.81 520.475L1397.2 519.933L1453.44 328.566L1452.06 329.035Z" fill="#1D4DFF"/>
<path d="M1462.06 325.621L1405.96 516.536L1407.35 515.994L1463.43 325.152L1462.06 325.621Z" fill="#1D4DFF"/>
<path d="M1472.05 322.208L1416.11 512.596L1417.5 512.054L1473.43 321.739L1472.05 322.208Z" fill="#1D4DFF"/>
<path d="M1482.05 318.794L1426.25 508.656L1427.65 508.115L1483.42 318.325L1482.05 318.794Z" fill="#1D4DFF"/>
<path d="M1492.04 315.38L1436.4 504.716L1437.8 504.176L1493.41 314.911L1492.04 315.38Z" fill="#1D4DFF"/>
<path d="M1502.03 311.966L1446.55 500.777L1447.94 500.235L1503.41 311.497L1502.03 311.966Z" fill="#1D4DFF"/>
<path d="M1512.03 308.553L1456.7 496.837L1458.09 496.296L1513.4 308.083L1512.03 308.553Z" fill="#1D4DFF"/>
<path d="M1522.02 305.138L1466.85 492.897L1468.24 492.356L1523.39 304.669L1522.02 305.138Z" fill="#1D4DFF"/>
<path d="M1532.01 301.724L1476.99 488.957L1478.39 488.417L1533.39 301.255L1532.01 301.724Z" fill="#1D4DFF"/>
<path d="M1542.01 298.311L1487.14 485.018L1488.54 484.476L1543.38 297.842L1542.01 298.311Z" fill="#1D4DFF"/>
<path d="M1552 294.897L1497.29 481.079L1498.69 480.537L1553.37 294.428L1552 294.897Z" fill="#1D4DFF"/>
<path d="M1562 291.483L1507.44 477.138L1508.83 476.597L1563.37 291.014L1562 291.483Z" fill="#1D4DFF"/>
<path d="M1571.99 288.069L1517.59 473.199L1518.98 472.658L1573.36 287.6L1571.99 288.069Z" fill="#1D4DFF"/>
<path d="M1581.98 284.656L1527.74 469.259L1529.13 468.717L1583.36 284.187L1581.98 284.656Z" fill="#1D4DFF"/>
<path d="M1591.98 281.242L1537.88 465.32L1539.28 464.778L1593.35 280.773L1591.98 281.242Z" fill="#1D4DFF"/>
<path d="M1601.97 277.828L1548.03 461.379L1549.43 460.839L1603.34 277.359L1601.97 277.828Z" fill="#1D4DFF"/>
<path d="M1558.18 457.44L1559.57 456.899L1611.6 279.858L1610.99 277.732L1558.18 457.44Z" fill="#1D4DFF"/>
<path d="M1568.33 453.5L1569.72 452.959L1616.04 295.333L1615.43 293.206L1568.33 453.5Z" fill="#1D4DFF"/>
<path d="M1578.48 449.561L1579.87 449.019L1620.49 310.807L1619.87 308.681L1578.48 449.561Z" fill="#1D4DFF"/>
<path d="M1588.62 445.62L1590.02 445.08L1624.93 326.282L1624.32 324.155L1588.62 445.62Z" fill="#1D4DFF"/>
<path d="M1598.77 441.681L1600.17 441.14L1629.37 341.758L1628.76 339.63L1598.77 441.681Z" fill="#1D4DFF"/>
<path d="M1608.92 437.742L1610.32 437.2L1633.81 357.231L1633.2 355.105L1608.92 437.742Z" fill="#1D4DFF"/>
<path d="M1619.07 433.802L1620.46 433.26L1638.26 372.707L1637.65 370.579L1619.07 433.802Z" fill="#1D4DFF"/>
<path d="M1629.22 429.863L1630.61 429.321L1642.7 388.182L1642.09 386.055L1629.22 429.863Z" fill="#1D4DFF"/>
<path d="M1639.37 425.922L1640.76 425.381L1647.14 403.656L1646.53 401.53L1639.37 425.922Z" fill="#1D4DFF"/>
<path d="M1649.51 421.983L1650.91 421.441L1651.59 419.131L1650.98 417.004L1649.51 421.983Z" fill="#1D4DFF"/>
</svg>
