<svg width="981" height="257" viewBox="0 0 981 257" fill="none" xmlns="http://www.w3.org/2000/svg">
<path d="M911.653 79.8695C931.427 80.0582 947.199 84.2966 959.076 92.4623L959.084 92.4675C970.703 100.333 977.104 111.086 978.346 124.822H942.734C941.895 119.763 939.103 115.592 934.486 112.327L933.463 111.636C928.06 107.851 921.137 106.014 912.802 106.014C905.534 106.014 899.427 107.291 894.558 109.93L893.6 110.477L893.579 110.49C888.696 113.542 886.12 117.735 886.119 123.005C886.119 126.788 887.516 129.791 890.394 131.784C893.058 133.629 896.476 134.918 900.586 135.701L902.23 135.995C906.353 136.689 912.502 137.452 920.649 138.283C940.314 140.554 955.198 144.797 965.413 150.925L965.439 150.94C975.568 156.729 980.732 166.767 980.732 181.426C980.732 190.063 978.31 197.695 973.468 204.365L972.465 205.687L972.453 205.702C967.117 212.694 959.544 218.168 949.661 222.086C939.964 225.815 928.636 227.698 915.652 227.698C896.142 227.698 880.29 223.546 868.002 215.347L866.824 214.543C854.808 205.931 848.297 194.412 847.236 179.896H882.844C883.721 186.222 887.029 191.384 892.667 195.331L893.809 196.088C899.601 199.759 906.814 201.553 915.366 201.554C924.029 201.554 931.019 200.208 936.225 197.405L936.243 197.397L936.259 197.387C941.551 194.334 944.329 189.937 944.329 184.276C944.329 180.459 943.245 177.343 940.918 175.142L940.436 174.714C937.932 172.628 934.478 171.235 930.19 170.449C925.939 169.483 919.042 168.433 909.54 167.293C897.478 165.695 887.362 163.687 879.183 161.276L877.572 160.789C869.734 158.35 863.425 154.623 858.591 149.639L857.643 148.626C852.781 143.223 850.289 135.965 850.289 126.711C850.289 122.944 850.711 119.371 851.536 115.986H840.121C816.799 115.986 805.744 129.575 805.744 151.277V225.984H768.202V82.1474H805.744V101.231L823.952 82.1474H854.76V107.307C855.628 105.615 856.617 103.977 857.739 102.398L857.736 102.396C862.895 95.2119 870.1 89.6566 879.402 85.7497L881.164 85.0411C890.057 81.6042 900.213 79.8706 911.653 79.8695Z" fill="white"/>
<path d="M413.779 60.7007H390.307C386.238 60.7007 382.944 61.5645 380.69 63.53L380.255 63.9371C378 66.192 377.018 69.649 377.018 73.9892V82.1474H448.236V155.491C448.236 168.903 450.531 179.278 455.299 186.43L455.309 186.449L455.322 186.464C460.367 193.527 468.03 196.993 478.055 196.993C488.496 196.993 496.697 193.123 502.48 185.346L502.491 185.333C508.22 177.429 511.004 166.576 511.004 152.927V82.1474H548.548V225.984H511.86V206.027L509.533 208.784C504.828 214.36 499.398 218.785 493.24 222.065L491.998 222.704C485.387 226.009 477.242 227.695 467.51 227.695C450.708 227.695 437.09 222.573 426.542 212.399C416.412 202.447 411.036 185.962 410.71 162.616L410.695 160.335V113.422H377.018V225.984H339.474V128.259L354.83 113.422H315.252V82.1474H339.474V68.0033C339.475 55.3435 343.098 45.8599 350.166 39.3364L350.178 39.3235C357.254 32.6119 367.891 29.1426 382.327 29.1426H413.779V60.7007Z" fill="white"/>
<path fill-rule="evenodd" clip-rule="evenodd" d="M682.197 80.4364C696.837 80.4367 709.635 83.3462 720.624 89.1202L720.648 89.1305C731.826 94.7198 740.468 102.717 746.604 113.128L746.619 113.151C752.539 122.728 755.789 133.97 756.326 146.913L756.396 149.523C756.395 154.124 756.081 158.236 755.468 161.866H648.961V164.383L648.966 164.443C649.936 175.301 653.443 183.971 659.593 190.319L660.178 190.909C666.31 196.901 674.558 199.84 684.763 199.84C693.111 199.84 700.124 198.092 705.71 194.501L705.718 194.496C711.25 190.871 714.953 185.69 716.834 179.038H753.87C752.354 187.32 749.174 194.871 744.323 201.701L743.269 203.141C737.525 210.738 729.915 216.78 720.411 221.256L718.615 222.034C709.55 225.797 699.222 227.692 687.613 227.693C671.441 227.693 657.499 224.685 645.753 218.72C634.555 212.941 625.826 204.814 619.537 194.326L618.936 193.303C612.798 182.132 609.709 169.16 609.709 154.349C609.709 139.331 612.709 126.353 618.663 115.373L618.666 115.375C624.819 104.188 633.286 95.6312 644.078 89.6768L644.086 89.6716C655.071 83.5279 667.763 80.4365 682.197 80.4364ZM683.908 107.72C674.892 107.72 667.173 110.375 660.832 115.723C654.659 120.9 651.005 127.961 649.827 136.794L649.628 138.286H719.065L718.839 136.773C717.471 127.588 713.636 120.429 707.266 115.437C701.097 110.263 693.275 107.72 683.908 107.72Z" fill="white"/>
<path d="M597.899 225.984H560.358V29.1426H597.899V225.984Z" fill="white"/>
<path d="M246.678 72.4437L136.726 73.7151L232.146 123.41L214.698 184.18L118.555 172.925L171.684 256.422L54.5113 185.939L36.7986 123.41H135.303L22.2552 72.4437L0.657227 0.421875H267.454L246.678 72.4437Z" fill="#1D4DFF"/>
</svg>
