<svg width="981" height="257" viewBox="0 0 981 257" fill="none" xmlns="http://www.w3.org/2000/svg">
<path d="M911.653 80.1527C931.427 80.3414 947.199 84.5798 959.076 92.7455L959.084 92.7507C970.703 100.616 977.104 111.369 978.346 125.105H942.734C941.895 120.046 939.103 115.875 934.486 112.61L933.463 111.919C928.06 108.134 921.137 106.297 912.802 106.297C905.534 106.297 899.427 107.574 894.558 110.214L893.6 110.76L893.579 110.773C888.696 113.826 886.12 118.018 886.119 123.288C886.119 127.071 887.516 130.074 890.394 132.067C893.058 133.912 896.476 135.201 900.586 135.984L902.23 136.278C906.353 136.972 912.502 137.735 920.649 138.566C940.314 140.837 955.198 145.08 965.413 151.208L965.439 151.223C975.568 157.012 980.732 167.05 980.732 181.71C980.732 190.346 978.31 197.978 973.468 204.648L972.465 205.97L972.453 205.986C967.117 212.977 959.544 218.451 949.661 222.369C939.964 226.098 928.636 227.981 915.652 227.981C896.142 227.981 880.29 223.829 868.002 215.631L866.824 214.827C854.808 206.214 848.297 194.695 847.236 180.179H882.844C883.721 186.505 887.029 191.667 892.667 195.614L893.809 196.372C899.601 200.042 906.814 201.837 915.366 201.837C924.029 201.837 931.019 200.492 936.225 197.688L936.243 197.681L936.259 197.67C941.551 194.617 944.329 190.22 944.329 184.559C944.329 180.742 943.245 177.626 940.918 175.425L940.436 174.997C937.932 172.911 934.478 171.518 930.19 170.732C925.939 169.766 919.042 168.716 909.54 167.576C897.478 165.979 887.362 163.97 879.183 161.559L877.572 161.072C869.734 158.633 863.425 154.906 858.591 149.922L857.643 148.909C852.781 143.507 850.289 136.248 850.289 126.994C850.289 123.227 850.711 119.655 851.536 116.269H840.121C816.799 116.269 805.744 129.858 805.744 151.561V226.268H768.202V82.4306H805.744V101.514L823.952 82.4306H854.76V107.59C855.628 105.898 856.617 104.26 857.739 102.682L857.736 102.679C862.895 95.4951 870.1 89.9398 879.402 86.0329L881.164 85.3243C890.057 81.8874 900.213 80.1538 911.653 80.1527Z" fill="#00051A"/>
<path d="M413.779 60.9839H390.307C386.238 60.9839 382.944 61.8477 380.69 63.8132L380.255 64.2203C378 66.4752 377.018 69.9322 377.018 74.2724V82.4306H448.236V155.774C448.236 169.186 450.531 179.561 455.299 186.714L455.309 186.732L455.322 186.747C460.367 193.81 468.03 197.276 478.055 197.276C488.496 197.276 496.697 193.406 502.48 185.629L502.491 185.616C508.22 177.712 511.004 166.86 511.004 153.21V82.4306H548.548V226.268H511.86V206.31L509.533 209.067C504.828 214.643 499.398 219.068 493.24 222.348L491.998 222.987C485.387 226.292 477.242 227.979 467.51 227.979C450.708 227.978 437.09 222.856 426.542 212.683C416.412 202.73 411.036 186.245 410.71 162.899L410.695 160.618V113.705H377.018V226.268H339.474V128.542L354.83 113.705H315.252V82.4306H339.474V68.2865C339.475 55.6267 343.098 46.1431 350.166 39.6196L350.178 39.6067C357.254 32.8951 367.891 29.4258 382.327 29.4258H413.779V60.9839Z" fill="#00051A"/>
<path fill-rule="evenodd" clip-rule="evenodd" d="M682.197 80.7196C696.837 80.7199 709.635 83.6294 720.624 89.4034L720.648 89.4137C731.826 95.003 740.468 103 746.604 113.411L746.619 113.435C752.539 123.011 755.789 134.253 756.326 147.196L756.396 149.806C756.395 154.407 756.081 158.519 755.468 162.149H648.961V164.667L648.966 164.726C649.936 175.585 653.443 184.254 659.593 190.602L660.178 191.192C666.31 197.184 674.558 200.123 684.763 200.123C693.111 200.123 700.124 198.375 705.71 194.784L705.718 194.779C711.25 191.154 714.953 185.973 716.834 179.321H753.87C752.354 187.603 749.174 195.154 744.323 201.984L743.269 203.424C737.525 211.021 729.915 217.063 720.411 221.539L718.615 222.317C709.55 226.081 699.222 227.976 687.613 227.976C671.441 227.976 657.499 224.969 645.753 219.004C634.555 213.224 625.826 205.097 619.537 194.609L618.936 193.586C612.798 182.415 609.709 169.443 609.709 154.633C609.709 139.615 612.709 126.636 618.663 115.656L618.666 115.658C624.819 104.471 633.286 95.9145 644.078 89.96L644.086 89.9548C655.071 83.8111 667.763 80.7197 682.197 80.7196ZM683.908 108.003C674.892 108.003 667.173 110.658 660.832 116.006C654.659 121.184 651.005 128.244 649.827 137.077L649.628 138.569H719.065L718.839 137.056C717.471 127.871 713.636 120.712 707.266 115.72C701.097 110.546 693.275 108.003 683.908 108.003Z" fill="#00051A"/>
<path d="M597.899 226.268H560.358V29.4258H597.899V226.268Z" fill="#00051A"/>
<path d="M246.678 72.7269L136.726 73.9983L232.146 123.693L214.698 184.463L118.555 173.208L171.684 256.705L54.5113 186.222L36.7986 123.693H135.303L22.2552 72.7269L0.657227 0.705078H267.454L246.678 72.7269Z" fill="#1D4DFF"/>
</svg>
