<svg width="825" height="257" viewBox="0 0 825 257" fill="none" xmlns="http://www.w3.org/2000/svg">
<path d="M397.231 239.041H337.875L337.555 206.799H396.91L397.231 239.041Z" fill="white"/>
<path d="M73.8892 170.924L73.8719 172.38C73.1115 202.368 48.9399 226.541 18.9517 227.303L17.4955 227.32H0.686523V196.559H17.4955L18.814 196.524C31.9205 195.858 42.4294 185.349 43.0938 172.242L43.1285 170.924V87.612H73.8892V170.924Z" fill="white"/>
<path d="M200.846 139.985L200.833 141.223C200.593 153.514 196.75 163.5 189.098 170.887L188.321 171.615C180.501 178.749 169.606 182.399 155.971 182.887V182.949H134.455C129.031 207.91 107.089 226.707 80.6467 227.306L79.3487 227.32H76.124V196.559H79.3487L80.6671 196.524C93.7742 195.858 104.284 185.349 104.949 172.242L104.984 170.924V87.612H135.742V137.177L121.01 150.736H135.812V150.728H154.008C160.495 150.578 164.374 149.252 166.366 147.356L166.757 146.955C168.665 144.857 169.879 141.29 169.879 135.678V29.1406H200.846V139.985Z" fill="white"/>
<path fill-rule="evenodd" clip-rule="evenodd" d="M463.143 74.8868C476.497 75.1798 487.749 80.0164 496.718 89.4059C506.641 99.6413 510.872 112.96 510.74 127.019C510.426 143.395 505.248 156.874 495.046 167.216L495.044 167.213C484.958 177.438 471.602 182.618 455.236 182.932L453.642 182.947H406.396C393.579 182.947 381.717 177.29 370.809 165.973C362.219 177.29 348.105 182.949 328.471 182.949V182.944H321.646C316.136 208.316 293.559 227.32 266.537 227.32H239.762V196.559H266.537C276.345 196.559 284.867 191.045 289.176 182.944H280.407C263.536 182.944 249.806 178.44 239.516 169.165L239.502 169.153C228.711 159.274 224.257 145.504 224.11 131.166C224.11 116.328 228.941 102.357 239.24 91.5479C249.045 81.5036 262.025 76.7995 275.93 76.9369C288.666 77.2021 299.951 81.9898 308.678 91.2673C316.52 99.8294 320.829 111.527 321.839 126.08C321.98 129.816 322.161 133.554 322.325 137.293L307.72 150.736C308.824 150.736 328.471 150.681 328.471 150.839C338.833 150.839 345.923 148.111 349.741 142.658C353.422 137.612 355.263 125.817 355.263 107.274H383.284C383.284 122.273 382.329 134.204 380.42 143.067C388.465 148.248 397.124 150.839 406.396 150.839C406.475 150.838 420.409 150.753 421.781 150.753C415.701 141.895 411.814 131.936 411.923 121.099C412.216 108.075 417.676 96.516 427.138 87.6599C437.086 78.6052 449.862 74.7587 463.143 74.8868ZM274.484 108.73C268.742 108.621 263.506 110.414 259.509 114.667C255.925 118.626 254.051 123.78 254.05 130.347C254.176 136.411 255.928 142.226 261.008 145.97C269.769 152.425 282.099 151.726 292.443 151.252C292.205 144.127 291.639 137.013 291.175 129.898V129.886C290.713 122.31 288.868 117.051 285.996 113.715C283.377 110.674 279.648 108.936 274.484 108.73ZM461.827 106.272C456.172 106.146 450.848 107.785 446.898 111.997L446.9 112C443.419 115.721 441.644 120.342 441.644 126.039C441.918 135.352 448.532 142.96 452.914 150.753C460.092 150.685 467.312 149.509 472.806 144.472C481.787 135.967 481.784 121.263 474.069 112.145C470.821 108.45 466.795 106.501 461.827 106.272Z" fill="white"/>
<path d="M74.6413 61.3831H42.5397L42.3693 29.1406H74.4688L74.6413 61.3831Z" fill="white"/>
<path d="M474.227 61.3831H442.128L441.955 29.1406H474.054L474.227 61.3831Z" fill="white"/>
<path d="M803.881 72.4437L693.93 73.7151L789.349 123.41L771.902 184.18L675.758 172.925L728.888 256.422L611.715 185.939L594.002 123.41H692.507L579.459 72.4437L557.861 0.421875H824.658L803.881 72.4437Z" fill="#1D4DFF"/>
</svg>
