<svg width="825" height="257" viewBox="0 0 825 257" fill="none" xmlns="http://www.w3.org/2000/svg">
<path d="M397.231 239.324H337.875L337.555 207.082H396.91L397.231 239.324Z" fill="#00051A"/>
<path d="M73.8892 171.208L73.8719 172.663C73.1115 202.651 48.9399 226.824 18.9517 227.586L17.4955 227.603H0.686523V196.843H17.4955L18.814 196.807C31.9205 196.141 42.4294 185.632 43.0938 172.525L43.1285 171.208V87.8952H73.8892V171.208Z" fill="#00051A"/>
<path d="M200.846 140.268L200.833 141.506C200.593 153.798 196.75 163.784 189.098 171.17L188.321 171.898C180.501 179.032 169.606 182.682 155.971 183.17V183.233H134.455C129.031 208.193 107.089 226.991 80.6467 227.589L79.3487 227.603H76.124V196.843H79.3487L80.6671 196.807C93.7742 196.141 104.284 185.632 104.949 172.525L104.984 171.208V87.8952H135.742V137.46L121.01 151.019H135.812V151.012H154.008C160.495 150.861 164.374 149.536 166.366 147.639L166.757 147.238C168.665 145.141 169.879 141.573 169.879 135.961V29.4238H200.846V140.268Z" fill="#00051A"/>
<path fill-rule="evenodd" clip-rule="evenodd" d="M463.143 75.17C476.497 75.463 487.749 80.2996 496.718 89.6891C506.641 99.9245 510.872 113.243 510.74 127.302C510.426 143.678 505.248 157.158 495.046 167.499L495.044 167.496C484.958 177.721 471.602 182.901 455.236 183.215L453.642 183.231H406.396C393.579 183.231 381.717 177.573 370.809 166.256C362.219 177.573 348.105 183.233 328.471 183.233V183.228H321.646C316.136 208.599 293.559 227.603 266.537 227.603H239.762V196.843H266.537C276.345 196.842 284.867 191.328 289.176 183.228H280.407C263.536 183.228 249.806 178.723 239.516 169.448L239.502 169.436C228.711 159.557 224.257 145.787 224.11 131.449C224.11 116.611 228.941 102.64 239.24 91.8311C249.045 81.7868 262.025 77.0827 275.93 77.2201C288.666 77.4853 299.951 82.273 308.678 91.5505C316.52 100.113 320.829 111.81 321.839 126.363C321.98 130.099 322.161 133.837 322.325 137.576L307.72 151.019C308.824 151.019 328.471 150.964 328.471 151.122C338.833 151.122 345.923 148.395 349.741 142.941C353.422 137.895 355.263 126.1 355.263 107.557H383.284C383.284 122.556 382.329 134.487 380.42 143.35C388.465 148.531 397.124 151.122 406.396 151.122C406.475 151.121 420.409 151.036 421.781 151.036C415.701 142.178 411.814 132.219 411.923 121.383C412.216 108.358 417.676 96.7992 427.138 87.9431C437.086 78.8884 449.862 75.0419 463.143 75.17ZM274.484 109.014C268.742 108.904 263.506 110.697 259.509 114.951C255.925 118.909 254.051 124.063 254.05 130.63C254.176 136.695 255.928 142.509 261.008 146.253C269.769 152.709 282.099 152.009 292.443 151.535C292.205 144.41 291.639 137.296 291.175 130.181V130.169C290.713 122.593 288.868 117.335 285.996 113.999C283.377 110.957 279.648 109.219 274.484 109.014ZM461.827 106.555C456.172 106.429 450.848 108.069 446.898 112.28L446.9 112.283C443.419 116.005 441.644 120.625 441.644 126.323C441.918 135.635 448.532 143.243 452.914 151.036C460.092 150.968 467.312 149.792 472.806 144.755C481.787 136.25 481.784 121.546 474.069 112.428C470.821 108.733 466.795 106.785 461.827 106.555Z" fill="#00051A"/>
<path d="M74.6413 61.6663H42.5397L42.3693 29.4238H74.4688L74.6413 61.6663Z" fill="#00051A"/>
<path d="M474.227 61.6663H442.128L441.955 29.4238H474.054L474.227 61.6663Z" fill="#00051A"/>
<path d="M803.881 72.7269L693.93 73.9983L789.349 123.693L771.902 184.463L675.758 173.208L728.888 256.705L611.715 186.222L594.002 123.693H692.507L579.459 72.7269L557.861 0.705078H824.658L803.881 72.7269Z" fill="#1D4DFF"/>
</svg>
