<svg width="825" height="257" viewBox="0 0 825 257" fill="none" xmlns="http://www.w3.org/2000/svg">
<path d="M397.231 238.756H337.875L337.555 206.513H396.91L397.231 238.756Z" fill="white"/>
<path d="M73.8892 170.639L73.8719 172.094C73.1115 202.083 48.9399 226.256 18.9517 227.018L17.4955 227.035H0.686523V196.274H17.4955L18.814 196.238C31.9205 195.573 42.4294 185.064 43.0938 171.957L43.1285 170.639V87.3268H73.8892V170.639Z" fill="white"/>
<path d="M200.846 139.7L200.833 140.938C200.593 153.229 196.75 163.215 189.098 170.601L188.321 171.33C180.501 178.464 169.606 182.114 155.971 182.602V182.664H134.455C129.031 207.624 107.089 226.422 80.6467 227.021L79.3487 227.035H76.124V196.274H79.3487L80.6671 196.238C93.7742 195.573 104.284 185.063 104.949 171.957L104.984 170.639V87.3268H135.742V136.892L121.01 150.45H135.812V150.443H154.008C160.495 150.293 164.374 148.967 166.366 147.071L166.757 146.67C168.665 144.572 169.879 141.005 169.879 135.393V28.8555H200.846V139.7Z" fill="white"/>
<path fill-rule="evenodd" clip-rule="evenodd" d="M463.143 74.6017C476.497 74.8946 487.749 79.7313 496.718 89.1208C506.641 99.3562 510.872 112.675 510.74 126.734C510.426 143.109 505.248 156.589 495.046 166.931L495.044 166.928C484.958 177.153 471.602 182.333 455.236 182.647L453.642 182.662H406.396C393.579 182.662 381.717 177.005 370.809 165.688C362.219 177.005 348.105 182.664 328.471 182.664V182.659H321.646C316.136 208.03 293.559 227.035 266.537 227.035H239.762V196.274H266.537C276.345 196.274 284.867 190.76 289.176 182.659H280.407C263.536 182.659 249.806 178.155 239.516 168.88L239.502 168.868C228.711 158.988 224.257 145.218 224.11 130.881C224.11 116.043 228.941 102.072 239.24 91.2627C249.045 81.2185 262.025 76.5144 275.93 76.6518C288.666 76.9169 299.951 81.7047 308.678 90.9821C316.52 99.5442 320.829 111.242 321.839 125.795C321.98 129.531 322.161 133.269 322.325 137.008L307.72 150.45C308.824 150.45 328.471 150.396 328.471 150.553C338.833 150.553 345.923 147.826 349.741 142.372C353.422 137.327 355.263 125.532 355.263 106.989H383.284C383.284 121.987 382.329 133.919 380.42 142.782C388.465 147.963 397.124 150.553 406.396 150.553C406.475 150.553 420.409 150.468 421.781 150.468C415.701 141.61 411.814 131.65 411.923 120.814C412.216 107.79 417.676 96.2309 427.138 87.3748C437.086 78.32 449.862 74.4735 463.143 74.6017ZM274.484 108.445C268.742 108.336 263.506 110.129 259.509 114.382C255.925 118.34 254.051 123.495 254.05 130.062C254.176 136.126 255.928 141.941 261.008 145.685C269.769 152.14 282.099 151.44 292.443 150.967C292.205 143.842 291.639 136.728 291.175 129.613V129.6C290.713 122.025 288.868 116.766 285.996 113.43C283.377 110.388 279.648 108.651 274.484 108.445ZM461.827 105.987C456.172 105.86 450.848 107.5 446.898 111.712L446.9 111.715C443.419 115.436 441.644 120.057 441.644 125.754C441.918 135.067 448.532 142.675 452.914 150.468C460.092 150.4 467.312 149.224 472.806 144.187C481.787 135.682 481.784 120.977 474.069 111.86C470.821 108.165 466.795 106.216 461.827 105.987Z" fill="white"/>
<path d="M74.6413 61.0979H42.5397L42.3693 28.8555H74.4688L74.6413 61.0979Z" fill="white"/>
<path d="M474.227 61.0979H442.128L441.955 28.8555H474.054L474.227 61.0979Z" fill="white"/>
<path d="M803.881 72.1585L693.93 73.4299L789.349 123.125L771.902 183.895L675.758 172.64L728.888 256.137L611.715 185.654L594.002 123.125H692.507L579.459 72.1585L557.861 0.136719H824.658L803.881 72.1585Z" fill="white"/>
</svg>
