<svg width="981" height="257" viewBox="0 0 981 257" fill="none" xmlns="http://www.w3.org/2000/svg">
<path d="M911.653 79.5843C931.427 79.773 947.199 84.0114 959.076 92.1771L959.084 92.1823C970.703 100.048 977.104 110.801 978.346 124.537H942.734C941.895 119.478 939.103 115.307 934.486 112.042L933.463 111.351C928.06 107.566 921.137 105.729 912.802 105.729C905.534 105.729 899.427 107.006 894.558 109.645L893.6 110.192L893.579 110.204C888.696 113.257 886.12 117.45 886.119 122.72C886.119 126.503 887.516 129.506 890.394 131.499C893.058 133.343 896.476 134.633 900.586 135.416L902.23 135.71C906.353 136.404 912.502 137.166 920.649 137.998C940.314 140.268 955.198 144.511 965.413 150.64L965.439 150.655C975.568 156.444 980.732 166.481 980.732 181.141C980.732 189.778 978.31 197.41 973.468 204.08L972.465 205.402L972.453 205.417C967.117 212.409 959.544 217.883 949.661 221.801C939.964 225.53 928.636 227.413 915.652 227.413C896.142 227.413 880.29 223.26 868.002 215.062L866.824 214.258C854.808 205.645 848.297 194.127 847.236 179.611H882.844C883.721 185.937 887.029 191.099 892.667 195.046L893.809 195.803C899.601 199.474 906.814 201.268 915.366 201.269C924.029 201.269 931.019 199.923 936.225 197.12L936.243 197.112L936.259 197.102C941.551 194.049 944.329 189.652 944.329 183.991C944.329 180.173 943.245 177.058 940.918 174.856L940.436 174.429C937.932 172.342 934.478 170.95 930.19 170.164C925.939 169.198 919.042 168.148 909.54 167.007C897.478 165.41 887.362 163.401 879.183 160.991L877.572 160.504C869.734 158.065 863.425 154.338 858.591 149.354L857.643 148.341C852.781 142.938 850.289 135.679 850.289 126.425C850.289 122.659 850.711 119.086 851.536 115.701H840.121C816.799 115.701 805.744 129.289 805.744 150.992V225.699H768.202V81.8622H805.744V100.946L823.952 81.8622H854.76V107.022C855.628 105.33 856.617 103.692 857.739 102.113L857.736 102.111C862.895 94.9267 870.1 89.3715 879.402 85.4646L881.164 84.756C890.057 81.319 900.213 79.5854 911.653 79.5843Z" fill="white"/>
<path d="M413.779 60.4155H390.307C386.238 60.4155 382.944 61.2794 380.69 63.2448L380.255 63.652C378 65.9069 377.018 69.3639 377.018 73.7041V81.8622H448.236V155.206C448.236 168.618 450.531 178.993 455.299 186.145L455.309 186.163L455.322 186.179C460.367 193.242 468.03 196.707 478.055 196.708C488.496 196.707 496.697 192.838 502.48 185.061L502.491 185.048C508.22 177.144 511.004 166.291 511.004 152.642V81.8622H548.548V225.699H511.86V205.742L509.533 208.499C504.828 214.075 499.398 218.5 493.24 221.78L491.998 222.419C485.387 225.724 477.242 227.41 467.51 227.41C450.708 227.41 437.09 222.288 426.542 212.114C416.412 202.162 411.036 185.676 410.71 162.331L410.695 160.05V113.137H377.018V225.699H339.474V127.974L354.83 113.137H315.252V81.8622H339.474V67.7182C339.475 55.0583 343.098 45.5748 350.166 39.0512L350.178 39.0384C357.254 32.3268 367.891 28.8575 382.327 28.8574H413.779V60.4155Z" fill="white"/>
<path fill-rule="evenodd" clip-rule="evenodd" d="M682.197 80.1512C696.837 80.1515 709.635 83.061 720.624 88.835L720.648 88.8453C731.826 94.4347 740.468 102.432 746.604 112.843L746.619 112.866C752.539 122.443 755.789 133.685 756.326 146.628L756.396 149.238C756.395 153.839 756.081 157.951 755.468 161.581H648.961V164.098L648.966 164.158C649.936 175.016 653.443 183.686 659.593 190.034L660.178 190.624C666.31 196.616 674.558 199.555 684.763 199.555C693.111 199.555 700.124 197.807 705.71 194.216L705.718 194.211C711.25 190.586 714.953 185.405 716.834 178.753H753.87C752.354 187.035 749.174 194.585 744.323 201.415L743.269 202.856C737.525 210.453 729.915 216.494 720.411 220.971L718.615 221.749C709.55 225.512 699.222 227.407 687.613 227.408C671.441 227.408 657.499 224.4 645.753 218.435C634.555 212.656 625.826 204.528 619.537 194.041L618.936 193.018C612.798 181.847 609.709 168.875 609.709 154.064C609.709 139.046 612.709 126.068 618.663 115.087L618.666 115.09C624.819 103.903 633.286 95.3461 644.078 89.3916L644.086 89.3865C655.071 83.2428 667.763 80.1513 682.197 80.1512ZM683.908 107.434C674.892 107.434 667.173 110.09 660.832 115.438C654.659 120.615 651.005 127.676 649.827 136.508L649.628 138H719.065L718.839 136.488C717.471 127.302 713.636 120.144 707.266 115.152C701.097 109.978 693.275 107.435 683.908 107.434Z" fill="white"/>
<path d="M597.899 225.699H560.358V28.8574H597.899V225.699Z" fill="white"/>
<path d="M246.678 72.1585L136.726 73.4299L232.146 123.125L214.698 183.895L118.555 172.64L171.684 256.137L54.5113 185.654L36.7986 123.125H135.303L22.2552 72.1585L0.657227 0.136719H267.454L246.678 72.1585Z" fill="white"/>
</svg>
